<svg xmlns="http://www.w3.org/2000/svg" viewBox="68.05 40.94 322.66 371.52">
  <g transform="matrix(0.1, 0, 0, -0.1, 67.958452, 414.956647)" fill="#000000" stroke="none">
    <path d="M 1384 3720 C 1243 3683 1163 3631 735 3291 C 436 3053 438 3055 373 3039 C 347 3033 292 3012 253 2994 C 122 2932 46 2831 13 2677 C -7 2581 -1 2298 23 2225 C 49 2145 100 2070 160 2023 C 324 1896 313 1930 305 1567 C 298 1268 304 1159 336 1001 C 394 718 533 492 750 330 C 876 235 1151 122 1355 81 C 1614 29 1666 25 2055 25 C 2457 25 2492 28 2778 86 C 2874 105 3041.764 155.504 3067.973 182.429 C 3094.182 209.354 3182.56 335.009 3185.236 372.115 C 3190.044 438.778 3247.941 737.892 3220.019 836.571 C 3227.003 839.858 3173.682 1257.789 3010.077 1277.377 C 2921.393 1299.784 2363.347 1116.394 2284.497 1306.327 C 2289.14 1949.887 2193.929 1951.501 2945.172 1893.516 C 3125.346 1879.609 3125.533 2571.536 3119.069 2665.645 C 3114.281 2735.343 2972 2883 2921 2909 C 2848 2947 2770 2961 2590 2969 C 2403 2977 2379 2984 2360 3030 C 2355 3044 2351 3128 2353 3225 C 2355 3378 2353 3401 2333 3453 C 2288 3573 2198 3658 2073 3700 C 1944 3742 1516 3755 1384 3720 Z"/>
  </g>
  <path d="M 359.579 308.265 C 356.027 308.169 349.035 309.814 338.892 313.23 C 328.651 316.742 320.178 318.29 313.282 318.083 C 299.299 317.572 292.212 313.436 284.821 305.472 C 277.431 297.522 273.593 287.704 273.402 276.321 L 275.457 215.961 C 275.569 211.618 276.349 208.314 277.735 205.937 C 279.104 203.669 282.067 202.631 286.59 202.741 L 337.314 204.707 C 345.103 205.009 351.011 203.35 355.04 199.837 C 359.086 196.325 361.347 187.96 361.745 174.615 C 362.238 161.395 360.662 152.808 357.016 148.992 C 353.368 145.161 347.365 143.102 338.892 142.782 L 286.686 140.723 C 280.887 140.515 278.021 136.891 278.323 129.771 L 279.997 82.006 C 280.188 76.02 278.42 71.47 274.582 68.469 C 270.743 65.467 263.147 63.713 251.824 63.297 L 227.407 62.37 C 216.96 61.956 208.201 64.032 201.001 68.373 C 193.818 72.812 181.111 82.423 162.892 97.109 C 144.768 111.876 132.664 121.39 126.85 125.731 C 121.037 130.074 114.541 132.963 107.437 134.512 C 100.349 136.062 95.525 138.759 92.96 142.478 C 90.412 146.198 88.931 152.601 88.627 161.698 C 88.341 170.798 88.724 177.519 89.918 181.862 C 91.878 190.641 99.266 195.287 111.88 195.815 C 119.063 196.118 122.518 198.911 122.313 204.291 L 120.05 271.164 C 118.475 317.46 130.975 349.292 157.781 366.868 C 171.46 375.458 186.829 381.652 203.757 385.482 C 220.703 389.299 238.637 391.581 257.54 392.299 C 276.444 393.018 291.718 392.395 310.718 390.751 C 329.638 389.092 344.4 386.712 354.944 383.407 C 365.185 379.785 370.6 368.21 371.301 348.782 C 372.271 322.122 368.433 308.583 359.579 308.265 Z" fill="white" style=""/>
</svg>